<svg xmlns="http://www.w3.org/2000/svg" version="1.1" xmlns:xlink="http://www.w3.org/1999/xlink" xmlns:svgjs="http://svgjs.dev/svgjs" width="1500" height="1500" viewBox="0 0 1500 1500"><rect width="1500" height="1500" fill="#000000"></rect><g transform="matrix(0.6666666666666666,0,0,0.6666666666666666,249.39393939393938,489.87576727574276)"><svg viewBox="0 0 396 206" data-background-color="#a588d0" preserveAspectRatio="xMidYMid meet" height="780" width="1500" xmlns="http://www.w3.org/2000/svg" xmlns:xlink="http://www.w3.org/1999/xlink"><g id="tight-bounds" transform="matrix(1,0,0,1,0.2400000000000091,0.04921527153268812)"><svg viewBox="0 0 395.52 205.90156945693462" height="205.90156945693462" width="395.52"><g><svg viewBox="0 0 395.52 205.90156945693462" height="205.90156945693462" width="395.52"><g transform="matrix(1,0,0,1,0,152.1027192883141)"><svg viewBox="0 0 395.52 53.79885016862052" height="53.79885016862052" width="395.52"><g id="textblocktransform"><svg viewBox="0 0 395.52 53.79885016862052" height="53.79885016862052" width="395.52" id="textblock"><g><svg viewBox="0 0 395.52 53.79885016862052" height="53.79885016862052" width="395.52"><g transform="matrix(1,0,0,1,0,0)"><svg width="395.52" viewBox="0 -39.26 304.03 41.36" height="53.79885016862052" data-palette-color="#000000"><path d="M16.36-10.11L16.36-39.26 21-39.26 21-9.81Q21-3.88 18.65-1.25L18.65-1.25Q15.72 2.05 10.18 2.05L10.18 2.05Q3.44 2.05 0-5.1L0-5.1 2.86-7.91Q5.42-2.1 10.03-2.1L10.03-2.1Q13.67-2.1 15.26-4.61L15.26-4.61Q16.36-6.37 16.36-10.11L16.36-10.11ZM31.81-9.59L31.81-28.25 36.35-28.25 36.35-10.21Q36.35-2.08 42.7-2.08L42.7-2.08Q45.21-2.08 47.63-3.64L47.63-3.64Q50.8-5.71 52.51-9.59L52.51-9.59 52.51-28.25 57.15-28.25 57.15 1.25 52.76 1.25 52.76-4.15Q50.53-1.15 47.51 0.42L47.51 0.42Q44.8 1.81 41.97 1.81L41.97 1.81Q36.37 1.81 33.71-1.95L33.71-1.95Q31.81-4.64 31.81-9.59L31.81-9.59ZM82-17.41L85.42-17.41 85.42-18.36Q85.42-21.88 83.49-23.61L83.49-23.61Q81.73-25.2 78.07-25.2L78.07-25.2Q72.7-25.2 68.21-21.75L68.21-21.75 66.21-25Q71.43-28.96 78.14-28.96L78.14-28.96Q84.25-28.96 87.35-25.66L87.35-25.66Q89.91-22.92 89.91-18.14L89.91-18.14 89.91-7.54Q89.91-1.93 91.67 1.25L91.67 1.25 87.28 1.25Q86.32-0.78 85.86-3.96L85.86-3.96 85.71-3.96Q84.32-1.46 81.61 0.29L81.61 0.29Q78.85 2.1 74.8 2.1L74.8 2.1Q70.58 2.1 67.79-0.39L67.79-0.39Q64.86-3.03 64.86-7.1L64.86-7.1Q64.86-11.99 69.14-14.72L69.14-14.72Q73.36-17.41 82-17.41L82-17.41ZM85.42-10.74L85.42-13.94 82.27-13.94Q69.58-13.94 69.58-7.15L69.58-7.15Q69.58-4.96 70.94-3.49L70.94-3.49Q72.6-1.76 75.51-1.76L75.51-1.76Q79.27-1.76 82.1-4.15L82.1-4.15Q85.42-6.93 85.42-10.74L85.42-10.74ZM99.31-28.25L103.75-28.25 103.75-22.95Q106-25.88 108.93-27.39L108.93-27.39Q111.64-28.81 114.42-28.81L114.42-28.81Q118.08-28.81 120.7-27L120.7-27Q124.65-24.24 124.65-17.41L124.65-17.41 124.65 1.25 120.11 1.25 120.11-16.85Q120.11-24.85 113.84-24.85L113.84-24.85Q111.42-24.85 109.15-23.49L109.15-23.49Q105.73-21.48 103.9-17.5L103.9-17.5 103.9 1.25 99.31 1.25 99.31-28.25ZM149.5-17.41L152.92-17.41 152.92-18.36Q152.92-21.88 150.99-23.61L150.99-23.61Q149.23-25.2 145.57-25.2L145.57-25.2Q140.2-25.2 135.71-21.75L135.71-21.75 133.71-25Q138.93-28.96 145.64-28.96L145.64-28.96Q151.75-28.96 154.85-25.66L154.85-25.66Q157.41-22.92 157.41-18.14L157.41-18.14 157.41-7.54Q157.41-1.93 159.17 1.25L159.17 1.25 154.78 1.25Q153.82-0.78 153.36-3.96L153.36-3.96 153.21-3.96Q151.82-1.46 149.11 0.29L149.11 0.29Q146.35 2.1 142.3 2.1L142.3 2.1Q138.08 2.1 135.29-0.39L135.29-0.39Q132.36-3.03 132.36-7.1L132.36-7.1Q132.36-11.99 136.64-14.72L136.64-14.72Q140.86-17.41 149.5-17.41L149.5-17.41ZM152.92-10.74L152.92-13.94 149.77-13.94Q137.07-13.94 137.07-7.15L137.07-7.15Q137.07-4.96 138.44-3.49L138.44-3.49Q140.1-1.76 143.01-1.76L143.01-1.76Q146.77-1.76 149.6-4.15L149.6-4.15Q152.92-6.93 152.92-10.74L152.92-10.74ZM183.26 1.25L183.26-39.26 190.19-39.26 199.57-19.9Q201.79-15.28 203.06-11.35L203.06-11.35 203.26-11.35Q204.5-15.23 206.77-19.9L206.77-19.9 216.12-39.26 223.06-39.26 223.06 1.25 218.56 1.25 218.56-20.95Q218.56-30.79 218.76-35.5L218.76-35.5 218.52-35.5Q216.46-30.05 213.8-24.46L213.8-24.46 204.87-5.57 201.45-5.57 192.51-24.46Q189.78-30.18 187.8-35.5L187.8-35.5 187.56-35.5Q187.73-30.74 187.75-21.85L187.75-21.85 187.75-20.95 187.75 1.25 183.26 1.25ZM247.66-17.41L251.08-17.41 251.08-18.36Q251.08-21.88 249.15-23.61L249.15-23.61Q247.39-25.2 243.73-25.2L243.73-25.2Q238.36-25.2 233.87-21.75L233.87-21.75 231.87-25Q237.09-28.96 243.81-28.96L243.81-28.96Q249.91-28.96 253.01-25.66L253.01-25.66Q255.57-22.92 255.57-18.14L255.57-18.14 255.57-7.54Q255.57-1.93 257.33 1.25L257.33 1.25 252.94 1.25Q251.98-0.78 251.52-3.96L251.52-3.96 251.37-3.96Q249.98-1.46 247.27 0.29L247.27 0.29Q244.51 2.1 240.46 2.1L240.46 2.1Q236.24 2.1 233.45-0.39L233.45-0.39Q230.52-3.03 230.52-7.1L230.52-7.1Q230.52-11.99 234.8-14.72L234.8-14.72Q239.02-17.41 247.66-17.41L247.66-17.41ZM251.08-10.74L251.08-13.94 247.93-13.94Q235.24-13.94 235.24-7.15L235.24-7.15Q235.24-4.96 236.6-3.49L236.6-3.49Q238.26-1.76 241.17-1.76L241.17-1.76Q244.93-1.76 247.76-4.15L247.76-4.15Q251.08-6.93 251.08-10.74L251.08-10.74ZM269.27-28.25L269.02-20.09 269.22-20.09Q272.32-28.96 278.81-28.96L278.81-28.96Q280.84-28.96 282.57-28.15L282.57-28.15 281.16-23.95Q279.89-24.51 278.18-24.51L278.18-24.51Q271.98-24.51 269.46-14.16L269.46-14.16 269.46 1.25 264.87 1.25 264.87-28.25 269.27-28.25ZM290.29-34.96L294.73-37.3 294.73-28.25 303.86-28.25 303.86-24.76 294.73-24.76 294.73-6.4Q294.73-4.3 295.09-3.39L295.09-3.39Q295.73-1.81 297.66-1.81L297.66-1.81Q300.2-1.81 302.76-3.56L302.76-3.56 304.03-0.32Q300.78 1.86 296.93 1.86L296.93 1.86Q290.29 1.86 290.29-5.81L290.29-5.81 290.29-24.76 283.33-24.76 283.33-28.25 290.29-28.25 290.29-34.96Z" opacity="1" transform="matrix(1,0,0,1,0,0)" fill="#ffffff" class="wordmark-text-0" data-fill-palette-color="primary" id="text-0"></path></svg></g></svg></g></svg></g></svg></g><g transform="matrix(1,0,0,1,134.4092577082502,0)"><svg viewBox="0 0 126.70148458349958 126.70148458349958" height="126.70148458349958" width="126.70148458349958"><g><svg></svg></g><g id="icon-0"><svg viewBox="0 0 126.70148458349958 126.70148458349958" height="126.70148458349958" width="126.70148458349958"><g><path d="M0 63.351c0-34.988 28.363-63.351 63.351-63.351 34.988 0 63.351 28.363 63.35 63.351 0 34.988-28.363 63.351-63.35 63.35-34.988 0-63.351-28.363-63.351-63.35zM63.351 121.85c32.308 0 58.499-26.191 58.499-58.499 0-32.308-26.191-58.499-58.499-58.499-32.308 0-58.499 26.191-58.499 58.499 0 32.308 26.191 58.499 58.499 58.499z" data-fill-palette-color="tertiary" fill="#ffffff" stroke="transparent"></path></g><g transform="matrix(1,0,0,1,44.06919607078319,30.627581027849132)"><svg viewBox="0 0 38.56309244193319 65.44632252780131" height="65.44632252780131" width="38.56309244193319"><g><svg xmlns="http://www.w3.org/2000/svg" xmlns:xlink="http://www.w3.org/1999/xlink" version="1.1" x="0" y="0" viewBox="23.906326056760665 2.1517426095352556 56.034972618322485 95.09825739046474" enable-background="new 0 0 100 100" xml:space="preserve" height="65.44632252780131" width="38.56309244193319" class="icon-dxe-0" data-fill-palette-color="accent" id="dxe-0"><path fill="#ffffff" d="M74.562 34.907C77.5 34.907 79.91 32.521 79.941 29.587 79.972 26.621 77.586 24.182 74.577 24.15 74.168 24.15 70.673 24.501 66.615 25.148 69.89 23.703 72.716 22.309 73.556 21.824A4.73 4.73 0 0 0 68.833 13.627C68.243 13.966 66.823 15.006 65.075 16.389A128 128 0 0 0 67.475 12.869 5.34 5.34 0 0 0 68.049 8.793 5.33 5.33 0 0 0 65.577 5.504 5.37 5.37 0 0 0 62.848 4.756 5.4 5.4 0 0 0 58.213 7.402C58.027 7.712 56.811 10.399 55.481 13.778 55.803 10.587 55.973 7.869 55.973 6.979A4.73 4.73 0 1 0 46.515 6.979C46.515 7.75 46.76 9.896 47.17 12.528A131 131 0 0 0 44.978 7.924 5.4 5.4 0 0 0 40.278 5.169C39.364 5.169 38.458 5.406 37.657 5.856A5.35 5.35 0 0 0 35.108 9.087 5.34 5.34 0 0 0 35.59 13.173C35.907 13.742 37.2 15.554 38.919 17.761 36.811 16.258 35.063 15.096 34.406 14.714A4.733 4.733 0 0 0 27.939 16.418 4.73 4.73 0 0 0 29.644 22.886C30.403 23.328 32.867 24.393 35.839 25.524 32.243 25.144 29.386 24.98 29.283 24.979 26.355 24.979 23.944 27.36 23.907 30.288A5.34 5.34 0 0 0 25.434 34.112 5.34 5.34 0 0 0 29.215 35.733H29.275C29.61 35.733 31.873 35.523 34.806 35.124 32.621 36.129 30.894 36.988 30.27 37.346A4.73 4.73 0 0 0 34.974 45.553C35.696 45.139 37.662 43.683 39.959 41.824A146 146 0 0 0 36.33 47.034 5.385 5.385 0 0 0 40.952 55.157 5.4 5.4 0 0 0 45.581 52.523C45.76 52.222 46.927 49.668 48.226 46.414 47.957 49.171 47.817 51.437 47.815 52.234 47.812 54.386 49.256 56.189 51.225 56.765V76.3A8.4 8.4 0 0 0 50.102 74.971C47.564 72.571 40.231 66.994 30.646 63.071L27.652 61.844 29.635 64.401C32.093 67.569 34.512 71.882 36.647 75.69 38.778 79.491 40.461 82.493 41.796 83.755 43.3 85.176 45.242 85.99 47.125 85.99H47.126C48.732 85.99 50.177 85.396 51.195 84.32 51.206 84.308 51.213 84.291 51.224 84.279V97.25H52.953V77.895C53.959 78.874 55.33 79.424 56.858 79.424 58.74 79.424 60.682 78.61 62.186 77.19 63.522 75.927 65.206 72.923 67.334 69.123 69.469 65.315 71.889 61.003 74.348 57.836L76.331 55.278 73.336 56.506C63.755 60.431 56.421 66.004 53.88 68.403A9 9 0 0 0 52.951 69.434V56.936C55.365 56.725 57.265 54.725 57.271 52.259 57.273 51.563 57.077 49.741 56.742 47.453A132 132 0 0 0 58.921 52.004 5.39 5.39 0 0 0 63.613 54.744 5.384 5.384 0 0 0 68.297 46.727C67.899 46.02 65.987 43.392 63.609 40.466 66.3 42.423 68.677 44.007 69.47 44.467A4.73 4.73 0 0 0 74.212 36.282C73.679 35.973 72.296 35.357 70.499 34.63 72.384 34.802 73.876 34.901 74.504 34.907zM49.937 83.133C48.368 84.796 45.093 84.488 42.983 82.498 41.84 81.418 40.049 78.225 38.154 74.843 36.521 71.932 34.724 68.725 32.85 65.923 40.261 69.375 46.378 73.828 48.914 76.227 50.003 77.256 50.699 78.561 50.872 79.899 51.038 81.172 50.708 82.32 49.937 83.133M53.109 73.332C53.284 71.994 53.978 70.689 55.07 69.659 57.607 67.262 63.724 62.808 71.132 59.355 69.258 62.158 67.461 65.364 65.831 68.275 63.934 71.658 62.143 74.851 61.001 75.931 58.889 77.925 55.613 78.226 54.047 76.566 53.277 75.754 52.943 74.605 53.109 73.332M53.096 32.015C53.087 32.018 53.078 32.019 53.073 32.023A3 3 0 0 1 52.567 32.173C52.387 32.209 52.2 32.23 52.008 32.23 51.714 32.23 51.438 32.174 51.17 32.093 51.121 32.078 51.072 32.065 51.025 32.048A3 3 0 0 1 50.296 31.666C50.285 31.658 50.275 31.647 50.264 31.64A2.94 2.94 0 0 1 49.248 30.213 3 3 0 0 1 49.111 29.5C49.107 29.438 49.092 29.38 49.092 29.317A2.8 2.8 0 0 1 49.263 28.37C49.269 28.349 49.274 28.329 49.282 28.309 49.397 28.01 49.555 27.733 49.755 27.489 50.055 27.119 50.435 26.818 50.881 26.632A2.9 2.9 0 0 1 52.005 26.406 3 3 0 0 1 52.972 26.583C53.452 26.752 53.87 27.043 54.198 27.42 54.306 27.546 54.407 27.681 54.495 27.824 54.499 27.831 54.502 27.84 54.507 27.847 54.588 27.982 54.657 28.122 54.716 28.269 54.737 28.32 54.748 28.374 54.766 28.426 54.803 28.537 54.84 28.648 54.864 28.765 54.897 28.944 54.919 29.127 54.919 29.316A2.9 2.9 0 0 1 54.7 30.421C54.4 31.146 53.82 31.721 53.096 32.015M59.33 8.062A4.1 4.1 0 0 1 62.851 6.054C63.576 6.054 64.289 6.25 64.92 6.622A4.06 4.06 0 0 1 66.797 9.117 4.06 4.06 0 0 1 66.359 12.211C65.579 13.537 63.425 16.624 61.054 19.716 58.318 22.081 55.605 24.652 54.236 26.511A3.6 3.6 0 0 0 53.345 25.99C53.898 24.442 54.366 22.119 54.75 19.618 56.293 14.893 58.402 9.638 59.33 8.062M36.723 12.542A4.05 4.05 0 0 1 36.358 9.441 4.06 4.06 0 0 1 38.293 6.988 4.08 4.08 0 0 1 43.85 8.558C44.803 10.262 46.65 14.335 48.22 18.317 48.853 21.368 49.613 24.307 50.411 26.111A3.7 3.7 0 0 0 49.594 26.663C48.295 25.081 45.812 22.968 43.213 20.95 40.251 17.506 37.436 13.816 36.723 12.542M29.277 34.438V35.086L29.233 34.438A4.04 4.04 0 0 1 26.365 33.209 4.06 4.06 0 0 1 25.206 30.306C25.233 28.085 27.063 26.278 29.337 26.278 31.62 26.308 37.311 26.898 42.082 27.701 44.528 28.462 46.818 29.043 48.394 29.179 48.391 29.24 48.375 29.298 48.375 29.36 48.375 29.622 48.407 29.877 48.459 30.125 46.261 30.431 42.633 31.761 39.171 33.209 35.808 33.909 32.198 34.438 29.277 34.438M44.466 51.863C43.362 53.72 40.745 54.4 38.874 53.288A4.09 4.09 0 0 1 37.444 47.696C38.436 46.027 41.618 41.554 44.67 37.802 46.859 35.821 48.813 33.85 49.809 32.392 49.85 32.364 49.888 32.342 49.927 32.316 50.162 32.482 50.414 32.626 50.686 32.733 49.946 34.484 49.341 37.633 48.877 40.91 47.343 45.475 45.359 50.357 44.466 51.863M67.169 47.363A4.09 4.09 0 0 1 65.609 52.923C63.707 53.992 61.117 53.255 60.052 51.368 59.126 49.722 57.359 45.858 55.816 42.002 55.109 38.359 54.209 34.707 53.255 32.755 53.519 32.658 53.763 32.528 53.991 32.379 54.082 32.433 54.163 32.472 54.262 32.538 55.209 33.696 56.786 35.136 58.6 36.622 62.209 40.538 66.27 45.768 67.169 47.363M55.568 30.043C55.611 29.82 55.638 29.592 55.638 29.358 55.638 29.316 55.628 29.276 55.625 29.235 55.949 29.104 56.327 28.965 56.746 28.82A35 35 0 0 0 59.849 27.866C64.185 26.662 70.179 25.446 74.605 25.446A4.085 4.085 0 0 1 78.642 29.572C78.621 31.799 76.788 33.61 74.56 33.61V34.258L74.521 33.61C72.845 33.594 69.328 33.281 65.685 32.804 61.99 31.492 57.994 30.277 55.568 30.043" data-fill-palette-color="accent"></path></svg></g></svg></g></svg></g></svg></g><g></g></svg></g><defs></defs></svg><rect width="395.52" height="205.90156945693462" fill="none" stroke="none" visibility="hidden"></rect></g></svg></g></svg>